<svg width="24" height="24" viewBox="0 0 24 24" fill="none" xmlns="http://www.w3.org/2000/svg">
<path d="M11.2826 3.45307C11.5131 2.98613 11.6284 2.75266 11.7848 2.67807C11.9209 2.61317 12.0791 2.61317 12.2152 2.67807C12.3716 2.75266 12.4869 2.98613 12.7174 3.45307L14.904 7.88304C14.9721 8.02089 15.0061 8.08982 15.0558 8.14333C15.0999 8.19071 15.1527 8.2291 15.2113 8.25638C15.2775 8.28718 15.3536 8.2983 15.5057 8.32053L20.397 9.03546C20.912 9.11075 21.1696 9.14839 21.2888 9.27419C21.3925 9.38365 21.4412 9.53405 21.4215 9.68353C21.3988 9.85533 21.2124 10.0369 20.8395 10.4001L17.3014 13.8462C17.1911 13.9536 17.136 14.0073 17.1004 14.0712C17.0689 14.1278 17.0487 14.19 17.0409 14.2543C17.0321 14.3269 17.0451 14.4028 17.0711 14.5545L17.9059 19.4219C17.994 19.9352 18.038 20.1919 17.9553 20.3443C17.8833 20.4768 17.7553 20.5697 17.607 20.5972C17.4366 20.6288 17.2061 20.5076 16.7451 20.2652L12.3724 17.9656C12.2361 17.8939 12.168 17.8581 12.0962 17.844C12.0327 17.8316 11.9673 17.8316 11.9038 17.844C11.832 17.8581 11.7639 17.8939 11.6276 17.9656L7.25491 20.2652C6.7939 20.5076 6.5634 20.6288 6.39296 20.5972C6.24467 20.5697 6.11671 20.4768 6.04472 20.3443C5.96199 20.1919 6.00601 19.9352 6.09406 19.4219L6.92887 14.5545C6.9549 14.4028 6.96791 14.3269 6.9591 14.2543C6.95131 14.19 6.9311 14.1278 6.89959 14.0712C6.86401 14.0073 6.80886 13.9536 6.69857 13.8462L3.16054 10.4001C2.78765 10.0369 2.6012 9.85533 2.57851 9.68353C2.55877 9.53405 2.60754 9.38365 2.71124 9.27419C2.83042 9.14839 3.08796 9.11075 3.60303 9.03546L8.4943 8.32053C8.64641 8.2983 8.72247 8.28718 8.7887 8.25638C8.84735 8.2291 8.90015 8.19071 8.94417 8.14333C8.99389 8.08982 9.02791 8.02089 9.09596 7.88304L11.2826 3.45307Z" fill="white" stroke="white" stroke-width="2" stroke-linecap="round" stroke-linejoin="round"/>
</svg>
